<svg width="41" height="33" viewBox="0 0 41 33" fill="none" xmlns="http://www.w3.org/2000/svg">
<path d="M3.14837 12.8055L1.57418 14.3919L0 12.8055L1.57418 11.2191L3.14837 12.8055ZM41 30.7562C41 31.3513 40.7654 31.922 40.3479 32.3428C39.9303 32.7636 39.364 33 38.7734 33C38.1829 33 37.6166 32.7636 37.199 32.3428C36.7814 31.922 36.5469 31.3513 36.5469 30.7562H41ZM12.707 25.6111L1.57418 14.3919L4.72255 11.2191L15.8554 22.4383L12.707 25.6111ZM1.57418 11.2191L12.707 0L15.8554 3.17277L4.72255 14.3919L1.57418 11.2191ZM3.14837 10.5617H25.414V15.0494H3.14837V10.5617ZM41 26.2685V30.7562H36.5469V26.2685H41ZM25.414 10.5617C29.5477 10.5617 33.512 12.2165 36.435 15.1621C39.3579 18.1077 41 22.1028 41 26.2685H36.5469C36.5469 23.293 35.3739 20.4394 33.2861 18.3354C31.1983 16.2314 28.3666 15.0494 25.414 15.0494V10.5617Z" fill="white"/>
</svg>
